<svg xmlns="http://www.w3.org/2000/svg" width="480" height="480" viewBox="0 0 480 480" role="img" aria-label="Question: mascot asks, ring counts down, approve is a slab"><title>Question: mascot asks, ring counts down, approve is a slab</title><rect width="480" height="480" fill="#000000"/><rect x="14" y="14" width="452" height="452" rx="40" fill="none" stroke="#D97757" stroke-width="2"/><g font-family="IBM Plex Sans,-apple-system,Segoe UI,Roboto,sans-serif"><circle cx="80" cy="80" r="44" fill="none" stroke="#202328" stroke-width="8"/><circle cx="80" cy="80" r="44" fill="none" stroke="#D97757" stroke-width="8" stroke-linecap="round" stroke-dasharray="226.7 276.5" transform="rotate(-90 80 80)"/><rect x="56" y="61" width="48" height="32" fill="#D97757"/><rect x="48" y="77" width="64" height="8" fill="#D97757"/><rect x="60" y="93" width="4" height="8" fill="#D97757"/><rect x="68" y="93" width="4" height="8" fill="#D97757"/><rect x="88" y="93" width="4" height="8" fill="#D97757"/><rect x="96" y="93" width="4" height="8" fill="#D97757"/><rect x="64" y="69" width="4" height="8" fill="#000000"/><rect x="90.0" y="67.0" width="8" height="10.0" fill="#000000"/><rect x="104" y="65" width="8" height="12" fill="#D97757"/><text x="148" y="58" font-size="15" fill="#D97757" font-weight="700" letter-spacing="2" text-anchor="start">CLAUDE NEEDS YOU · VIBEPULSE</text><text x="148" y="94" font-size="27" fill="#FFFFFF" font-weight="600" letter-spacing="0" text-anchor="start">Which authentication</text><text x="148" y="128" font-size="27" fill="#FFFFFF" font-weight="600" letter-spacing="0" text-anchor="start">approach?</text><rect x="24" y="140" width="432" height="92" rx="14" fill="none" stroke="#202328" stroke-width="2"/><text x="44" y="168" font-size="14" fill="#D97757" font-weight="600" letter-spacing="0" text-anchor="start">CLAUDE RECOMMENDS</text><text x="44" y="196" font-size="28" fill="#FFFFFF" font-weight="700" letter-spacing="0" text-anchor="start">New auth layer</text><text x="44" y="222" font-size="17" fill="#9298A2" font-weight="400" letter-spacing="0" text-anchor="start">Cleaner architecture</text><rect x="24" y="244" width="432" height="96" rx="18" fill="#D97757"/><text x="240" y="304" font-size="28" fill="#000000" font-weight="700" letter-spacing="2.4" text-anchor="middle">APPROVE</text><rect x="24" y="350" width="432" height="90" rx="18" fill="none" stroke="#5C687B" stroke-width="2"/><text x="240" y="406" font-size="24" fill="#9298A2" font-weight="600" letter-spacing="2" text-anchor="middle">LEAVE IT</text><text x="240" y="452" font-size="14" fill="#5C687B" font-weight="600" letter-spacing="1.5" text-anchor="middle">1 MORE OPTION IN TERMINAL</text></g></svg>